<?xml version="1.0" encoding="utf-8"?>
<!-- Generator: Adobe Illustrator 21.0.2, SVG Export Plug-In . SVG Version: 6.00 Build 0)  -->
<svg version="1.1" id="Capa_1" xmlns="http://www.w3.org/2000/svg" xmlns:xlink="http://www.w3.org/1999/xlink" x="0px" y="0px"
	 viewBox="0 0 512 512" style="enable-background:new 0 0 512 512;" xml:space="preserve">
<style type="text/css">
	.st0{fill:#0F4A7F;}
	.st1{fill:#2E7ACC;}
	.st2{fill:#FF9300;}
	.st3{fill:#FFCF00;}
	.st4{fill:#90BADD;}
	.st5{fill:#B6B8BE;}
</style>
<polygon class="st0" points="264,116 264,100 256,100 248,100 248,116 256,116 "/>
<path class="st1" d="M256,180h31.4c0.2,0,0.4,0,0.6,0v-16h-32h-32v16c0.2,0,0.4,0,0.6,0H256z"/>
<path class="st1" d="M209,372l5.2,42c1,8,7.8,14,15.9,14H256v-56H209z"/>
<path class="st0" d="M256,428h25.9c8.1,0,14.9-6,15.9-14l5.2-42h-47V428z"/>
<path class="st1" d="M0,284v32c0,4.4,3.6,8,8,8h24v-40H0z"/>
<path class="st1" d="M32,228H8c-4.4,0-8,3.6-8,8v32h32V228z"/>
<rect x="48" y="284" class="st1" width="32" height="40"/>
<path class="st1" d="M144,324h24c4.4,0,8-3.6,8-8v-32h-32V324z"/>
<path class="st1" d="M176,268v-32c0-4.4-3.6-8-8-8h-24v40H176z"/>
<rect x="96" y="228" class="st1" width="32" height="40"/>
<rect x="48" y="228" class="st1" width="32" height="40"/>
<rect x="96" y="284" class="st1" width="32" height="40"/>
<polygon class="st0" points="176,268 144,268 144,228 128,228 128,268 96,268 96,228 80,228 80,268 48,268 48,228 32,228 32,268 
	0,268 0,284 32,284 32,324 48,324 48,284 80,284 80,324 96,324 96,284 128,284 128,324 144,324 144,284 176,284 192,284 192,268 "/>
<rect x="384" y="284" class="st1" width="32" height="40"/>
<path class="st1" d="M368,228h-24c-4.4,0-8,3.6-8,8v32h32V228z"/>
<path class="st1" d="M336,284v32c0,4.4,3.6,8,8,8h24v-40H336z"/>
<path class="st1" d="M480,324h24c4.4,0,8-3.6,8-8v-32h-32V324z"/>
<rect x="432" y="284" class="st1" width="32" height="40"/>
<path class="st1" d="M504,228h-24v40h32v-32C512,231.6,508.4,228,504,228z"/>
<rect x="432" y="228" class="st1" width="32" height="40"/>
<rect x="384" y="228" class="st1" width="32" height="40"/>
<polygon class="st0" points="480,228 464,228 464,268 432,268 432,228 416,228 416,268 384,268 384,228 368,228 368,268 336,268 
	320,268 320,284 336,284 368,284 368,324 384,324 384,284 416,284 416,324 432,324 432,284 464,284 464,324 480,324 480,284 
	512,284 512,268 480,268 "/>
<path class="st2" d="M256,364v-48h-16v39c0,0.6-0.4,1-1,1h-14c-0.6,0-1-0.4-1-1v-39h-8c-4.4,0-8-3.6-8-8v-32c0-4.4,3.6-8,8-8h8v-39
	c0-0.6,0.4-1,1-1h14c0.6,0,1,0.4,1,1v39h16v-56h-64v56v16v80c0,4.4,3.6,8,8,8h9h47V364z"/>
<path class="st3" d="M320,212h-64v56h16v-39c0-0.6,0.4-1,1-1h14c0.6,0,1,0.4,1,1v39h8c4.4,0,8,3.6,8,8v32c0,0.3,0,0.5,0,0.8
	c0,0.4-0.1,0.8-0.2,1.2c0,0.2-0.1,0.4-0.2,0.6c-0.8,2.3-2.6,4.2-4.9,5c-0.8,0.3-1.7,0.5-2.6,0.5h-8v39c0,0.6-0.4,1-1,1h-14
	c-0.6,0-1-0.4-1-1v-39h-16v48v8h47h9c4.4,0,8-3.6,8-8v-80v-16V212z"/>
<path class="st0" d="M256,180h-31.4c-0.2,0-0.4,0-0.6,0c-7.8,0.2-15.1,4.1-19.4,10.7l-11.2,16.9c-0.9,1.3-1.3,2.9-1.3,4.4h64V180z"
	/>
<path class="st4" d="M256,180v32h64c0-1.6-0.5-3.1-1.3-4.4l-11.2-16.9c-4.4-6.5-11.6-10.5-19.4-10.7c-0.2,0-0.4,0-0.6,0L256,180
	L256,180z"/>
<path class="st0" d="M256,116h-8h-6.5c-2,0-4,0.4-5.9,1.1l-33.5,13.4c-6.1,2.4-10.1,8.3-10.1,14.9V156c0,4.4,3.6,8,8,8h24h32
	L256,116L256,116z"/>
<path class="st4" d="M224,268h-8c-4.4,0-8,3.6-8,8v32c0,4.4,3.6,8,8,8h8h16h16v-48h-16H224z"/>
<path class="st5" d="M304,308.8c0,0.4-0.1,0.8-0.2,1.2C303.8,309.6,303.9,309.2,304,308.8z"/>
<path class="st5" d="M298.6,315.5c2.3-0.8,4.1-2.6,4.9-5C302.8,312.9,301,314.7,298.6,315.5z"/>
<path class="st3" d="M264,100h8c4.4,0,8-3.6,8-8s-3.6-8-8-8h-16v16H264z"/>
<path class="st4" d="M256,164h32h24c4.4,0,8-3.6,8-8v-10.6c0-6.6-4-12.4-10.1-14.9l-33.6-13.4c-1.9-0.8-3.9-1.1-5.9-1.1H264h-8V164z
	"/>
<path class="st2" d="M256,84h-16c-4.4,0-8,3.6-8,8s3.6,8,8,8h8h8V84z"/>
<path class="st4" d="M272,316h16h8c0.9,0,1.8-0.2,2.6-0.5c2.3-0.8,4.1-2.6,4.9-5c0.1-0.2,0.1-0.4,0.2-0.6c0.1-0.4,0.2-0.8,0.2-1.2
	c0-0.3,0-0.5,0-0.8v-32c0-4.4-3.6-8-8-8h-8h-16h-16v48L272,316L272,316z"/>
<path class="st1" d="M240,229c0-0.6-0.4-1-1-1h-14c-0.6,0-1,0.4-1,1v39h16V229z"/>
<path class="st1" d="M224,355c0,0.6,0.4,1,1,1h14c0.6,0,1-0.4,1-1v-39h-16V355z"/>
<path class="st0" d="M288,229c0-0.6-0.4-1-1-1h-14c-0.6,0-1,0.4-1,1v39h16V229z"/>
<path class="st0" d="M272,355c0,0.6,0.4,1,1,1h14c0.6,0,1-0.4,1-1v-39h-16V355z"/>
</svg>
