<?xml version="1.0" encoding="utf-8"?>
<!-- Generator: Adobe Illustrator 21.0.2, SVG Export Plug-In . SVG Version: 6.00 Build 0)  -->
<svg version="1.1" id="Capa_1" xmlns="http://www.w3.org/2000/svg" xmlns:xlink="http://www.w3.org/1999/xlink" x="0px" y="0px"
	 viewBox="0 0 512 512" style="enable-background:new 0 0 512 512;" xml:space="preserve" width="100px" height="100px">
<style type="text/css">
	.st0{fill:#C5CCD3;}
	.st1{fill:#E6E9ED;}
	.st2{fill:#87CEEB;}
	.st3{opacity:0.15;}
	.st4{fill:#030005;}
	.st5{fill:#9EA7AF;}
	.st6{opacity:0.15;fill:#2F1744;enable-background:new    ;}
	.st7{fill:#2F1744;}
	.st8{fill:#6BC1DD;}
	.st9{fill:#FFFFFF;}
</style>
<g>
	<path class="st0" d="M429.5,122.6h-18.1c3.1,12.4,4.7,25.3,4.7,38.6c0,20.8-4,41.3-11.8,60.3h25.2c8.5,0,15.5-7,15.5-15.5v-68
		C444.9,129.5,438,122.6,429.5,122.6z"/>
	<path class="st0" d="M95.8,161.2c0-13.3,1.6-26.2,4.7-38.6h-18c-8.5,0-15.5,7-15.5,15.5v68c0,8.5,7,15.5,15.5,15.5h25.1
		C99.9,202.4,95.8,181.9,95.8,161.2z"/>
	<path class="st0" d="M400.3,278.1h-35c-8.8,8.2-18.4,15.4-28.8,21.5c-0.4,0.2-0.6,0.7-0.5,1.1c0.1,0.4,0.5,0.7,1,0.7h16.3
		c5.1,0,9.3,4.2,9.3,9.3v10.3c0,0.6,0.4,1,1,1h6.6c5.1,0,9.3,4.2,9.3,9.3v27.9h28.4c0.9,0,1.8,0,2.7,0.1v-70.9
		C410.6,282.8,406,278.1,400.3,278.1z"/>
	<path class="st0" d="M132.4,331.4c0-5.1,4.2-9.3,9.3-9.3h6.6c0.6,0,1-0.4,1-1v-10.3c0-5.1,4.2-9.3,9.3-9.3h16.3
		c0.5,0,0.8-0.3,1-0.7c0.1-0.4-0.1-0.9-0.5-1.1c-10.4-6.1-20.1-13.3-28.8-21.5h-34.9c-5.7,0-10.3,4.6-10.3,10.3v70.9
		c0.9-0.1,1.8-0.1,2.7-0.1h28.3L132.4,331.4L132.4,331.4L132.4,331.4z"/>
</g>
<path class="st1" d="M174.9,300.5h-16.3c-5.7,0-10.3,4.6-10.3,10.3V323h215.2v-12.2c0-5.7-4.6-10.3-10.3-10.3H337
	c47.9-27.9,80.1-79.9,80.1-139.3C417.1,72.2,345,0,256,0S94.8,72.2,94.8,161.2C94.8,220.6,127,272.5,174.9,300.5z"/>
<circle class="st2" cx="256" cy="161.1" r="92.9"/>
<path class="st0" d="M196.4,233.2c16.3,13.2,37,21.2,59.6,21.2c22.6,0,43.4-7.9,59.6-21.2c-8.5-7.1-19.4-11.4-31.3-11.4h-56.6
	C215.8,221.7,204.8,226,196.4,233.2z"/>
<g class="st3">
	<path class="st4" d="M192.8,161.2c0-46.3,33.8-84.6,78.1-91.7c-4.8-0.8-9.8-1.2-14.9-1.2c-51.3,0-92.9,41.6-92.9,92.9
		s41.6,92.9,92.9,92.9c5.1,0,10-0.4,14.9-1.2C226.6,245.8,192.8,207.4,192.8,161.2z"/>
</g>
<path class="st5" d="M380.5,359.2v-27.9c0-5.7-4.6-10.3-10.3-10.3H141.7c-5.7,0-10.3,4.6-10.3,10.3v27.9H380.5z"/>
<path class="st6" d="M161.4,359.2v-27.9c0-5.7,4.6-10.3,10.3-10.3h-30c-5.7,0-10.3,4.6-10.3,10.3v27.9H161.4z"/>
<g>
	<path class="st0" d="M117.6,502v-44h-9.1c-7.6,0-14.5-2.9-19.8-7.5V502c0,5.5,4.5,10,10,10h28.9C122.1,512,117.6,507.5,117.6,502z"
		/>
	<path class="st0" d="M403.5,458h-9.1v44c0,5.5-4.5,10-10,10h28.9c5.5,0,10-4.5,10-10v-51.6C418,455.1,411,458,403.5,458z"/>
</g>
<g>
	<path class="st5" d="M407.9,358.2h-10.4v105.8h10.4c17,0,30.9-13.9,30.9-30.9v-44C438.8,372.2,424.9,358.2,407.9,358.2z"/>
	<path class="st5" d="M114.5,358.2h-10.4c-17,0-30.9,13.9-30.9,30.9v44c0,17,13.9,30.9,30.9,30.9h10.4V358.2z"/>
</g>
<path class="st1" d="M113.5,358.2v143.5c0,5.7,4.6,10.3,10.3,10.3h264.5c5.7,0,10.3-4.6,10.3-10.3V358.2H113.5z"/>
<path class="st0" d="M338.1,512v-92.7c0-5.7-4.6-10.3-10.3-10.3H184.2c-5.7,0-10.3,4.6-10.3,10.3V512H338.1z"/>
<g class="st3">
	<path class="st7" d="M213.8,409h-29.6c-5.7,0-10.3,4.6-10.3,10.3V512h29.6v-92.7C203.5,413.6,208.1,409,213.8,409z"/>
</g>
<g>
	<path class="st5" d="M262.1,446.6h-56.7c-4.1,0-7.5-3.4-7.5-7.5s3.4-7.5,7.5-7.5h56.7c4.1,0,7.5,3.4,7.5,7.5
		S266.2,446.6,262.1,446.6z"/>
	<path class="st5" d="M262.1,469.5h-56.7c-4.1,0-7.5-3.4-7.5-7.5s3.4-7.5,7.5-7.5h56.7c4.1,0,7.5,3.4,7.5,7.5
		S266.2,469.5,262.1,469.5z"/>
	<path class="st5" d="M262.1,492.4h-56.7c-4.1,0-7.5-3.4-7.5-7.5s3.4-7.5,7.5-7.5h56.7c4.1,0,7.5,3.4,7.5,7.5
		C269.6,489.1,266.2,492.4,262.1,492.4z"/>
</g>
<path class="st8" d="M309.8,488.9c0,2.2-1.8,4.1-4.1,4.1h-19.4c-2.2,0-4.1-1.8-4.1-4.1v-52.7c0-2.2,1.8-4.1,4.1-4.1h19.4
	c2.2,0,4.1,1.8,4.1,4.1V488.9z"/>
<path class="st9" d="M256,44.3c-64.5,0-116.8,52.3-116.8,116.8c0,64.5,52.3,116.8,116.8,116.8c64.5,0,116.8-52.3,116.8-116.8
	C372.8,96.6,320.5,44.3,256,44.3z M256,254.1c-51.3,0-92.9-41.6-92.9-92.9s41.6-92.9,92.9-92.9c51.3,0,92.9,41.6,92.9,92.9
	S307.3,254.1,256,254.1z"/>
</svg>
